<?xml version="1.0" ?><svg height="270px" version="1.1" viewBox="0 0 234 270" width="234px" xmlns="http://www.w3.org/2000/svg" xmlns:xlink="http://www.w3.org/1999/xlink"><title/><desc/><defs/><g fill="none" fill-rule="evenodd" id="Classic" stroke="none" stroke-width="1"><g id="ChainLink" transform="translate(-5840.000000, -5438.000000)"><g transform="translate(5829.000000, 5438.000000)"><polygon fill="#FFFFFF" id="Polygon-2" points="128 7 238.851252 71 238.851252 199 128 263 17.1487483 199 17.1487483 71"/><polygon fill="#E6E6E6" fill-rule="nonzero" id="Line" points="15.3981335 72.3992163 128.576594 135.72526 130.041455 133.10721 16.8629945 69.781167"/><polygon fill="#E6E6E6" fill-rule="nonzero" id="Line" points="239.566895 68.2939891 127.625606 133.311627 129.13235 135.905798 241.073639 70.88816"/><polygon fill="#E6E6E6" fill-rule="nonzero" id="Line" points="127.511332 132.442726 126.685874 263.007223 129.685814 263.026189 130.511272 132.461692"/><path d="M128,7 L17.1487483,71 L17.1487483,199 L128,263 L238.851252,199 L238.851252,71 L128,7 Z M128,0.0717967697 L244.851252,67.5358984 L244.851252,202.464102 L128,269.928203 L11.1487483,202.464102 L11.1487483,67.5358984 L128,0.0717967697 Z" fill="#38A9F7" fill-rule="nonzero" id="Polygon-2"/><path d="M105.620538,49.9580632 C103.137072,49.2243137 101.100892,48.3617031 99.5130856,47.372116 C96.7420728,45.6456416 95.4018178,43.7673678 95.4893685,41.7406832 C95.5793689,39.7241621 97.0653745,37.9277887 99.9372753,36.3460221 C102.835861,34.7465041 106.002549,33.9599066 109.439934,33.9824773 C112.868277,34.0041633 115.912226,34.8325398 118.583328,36.4722281 C120.099844,37.4035623 121.455312,38.5569372 122.651504,39.9339271 L120.113878,41.3909901 C119.189181,39.8100928 117.959091,38.5484574 116.421552,37.6034062 C114.645351,36.5119805 112.497472,36.0025026 109.971872,36.0728013 C107.441127,36.1424258 105.097941,36.7757119 102.940824,37.9750201 C100.757743,39.1871273 99.6182714,40.5824535 99.528561,42.1641333 C99.4403764,43.7519169 100.426934,45.1881262 102.489887,46.4703868 C103.740414,47.2477632 105.559925,47.968275 107.947693,48.6305208 L105.620538,49.9580632 Z M109.123664,52.8224242 L131.373823,39.9358407 L134.027633,41.5578844 L124.342045,47.2189717 C127.704348,46.7312985 130.444161,47.1359268 132.575129,48.433145 C135.399138,50.1456968 135.122525,52.0134602 131.718368,54.0470525 L121.241928,60.2934114 L118.498998,58.6141525 L128.242352,52.8459601 C129.4277,52.1429389 130.087202,51.5341209 130.222949,51.0188745 C130.358733,50.5041982 130.001325,49.9883327 129.151458,49.4708038 C127.801059,48.647181 125.394948,48.3673276 121.923677,48.629866 L111.83207,54.5021774 L109.123664,52.8224242 Z M137.880422,68.0294239 C134.771399,67.8953569 132.371806,67.3258855 130.686908,66.3233868 C129.280322,65.4826838 128.525362,64.5459307 128.420406,63.5153381 C128.316707,62.4864603 128.877217,61.6036243 130.09892,60.8665774 C131.682911,59.9106058 133.653716,59.5627194 136.014409,59.8190291 C138.374286,60.0727063 140.70772,60.8810512 143.022572,62.2432072 L144.750975,63.2537683 L146.034489,62.4608288 C147.089793,61.8088317 147.600197,61.204857 147.567907,60.6480642 C147.535986,60.0917203 146.965946,59.4895377 145.859186,58.8404608 C144.259252,57.8983017 142.16709,57.1898034 139.579568,56.7137713 L141.911531,55.2995672 C144.549827,56.0405936 146.727913,56.915603 148.447642,57.9259441 C150.388859,59.0599524 151.392407,60.0896937 151.453811,61.018377 C151.516286,61.9482427 150.631769,62.9832704 148.793437,64.1263286 L142.493473,68.0430326 C141.581728,68.6097261 141.060139,69.0545602 140.929965,69.3769425 C140.799741,69.6995499 141.012479,70.0218806 141.568673,70.3435309 C141.751004,70.4488272 142.09526,70.5914368 142.601596,70.7712012 L141.208706,71.9535882 C139.956973,71.5909253 139.086733,71.2671098 138.597427,70.983047 C137.19919,70.1684944 136.961736,69.1826251 137.880422,68.0294239 Z M139.231121,66.6628582 L143.047786,64.3058642 L142.210002,63.8161676 C138.392346,61.5680728 135.473828,61.060087 133.428722,62.3032917 C132.68896,62.7528518 132.337936,63.2606175 132.376704,63.8265626 C132.415832,64.3930199 132.841088,64.9179709 133.653079,65.4007043 C134.87326,66.1238981 136.73361,66.5451486 139.231121,66.6628582 Z M150.604973,77.4757196 L163.481554,69.2530337 L157.75991,66.0791391 L159.764847,64.8152813 L168.350337,69.5423513 L153.515578,79.0717704 L150.604973,77.4757196 Z M168.403677,65.684777 L171.677893,63.5999676 L175.257929,65.543586 L171.996238,67.6349522 L168.403677,65.684777 Z M163.828426,84.527136 L178.53778,74.883352 L181.500844,76.3764265 L178.790633,78.1592081 C182.183881,77.5108025 185.060252,77.7681463 187.43998,78.9200941 C190.604172,80.4210692 190.590458,82.2365471 187.354856,84.4044661 L177.332371,91.1443215 L174.256847,89.693659 L183.582567,83.4546744 C184.711426,82.7013923 185.308334,82.0716476 185.376247,81.5634234 C185.444219,81.0555502 185.002537,80.5738415 184.052817,80.1164556 C182.545999,79.3843596 180.02839,79.2363375 176.488538,79.6750769 L166.827478,86.0508163 L163.828426,84.527136 Z M61.8611825,59.8886163 L79.1072316,50.7085738 L81.5353115,52.2558727 L66.3036377,60.451374 L74.9119164,66.1461066 L72.9167691,67.2384625 L61.8611825,59.8886163 Z M82.0928142,73.3192911 L94.6423419,66.158206 L89.6763553,62.9741763 L91.6447339,61.8597433 L99.0939821,66.6077023 L84.5927801,74.9645317 L82.0928142,73.3192911 Z M99.545467,62.9503755 L102.798643,61.0685345 L105.907078,63.018004 L102.659495,64.9153585 L99.545467,62.9503755 Z M93.4002227,80.696623 L107.858164,72.1127813 L110.39287,73.6822591 L107.700919,75.3024042 C110.878661,74.8169872 113.475539,75.1898886 115.501753,76.4234417 C118.190028,78.0459604 117.933917,79.8476936 114.709684,81.8397995 L104.822681,87.9202777 L102.231546,86.3070063 L111.411696,80.7094993 C112.531635,80.0238032 113.154237,79.432209 113.280957,78.9346269 C113.407707,78.4375666 113.067022,77.9430117 112.259838,77.450067 C110.977923,76.6643152 108.7007,76.4063698 105.423087,76.6706011 L95.9473831,82.33098 L93.4002227,80.696623 Z M110.472719,91.3779512 L131.259473,78.3297679 L133.875624,79.8253751 L120.663591,88.1979614 L133.609654,87.3602806 L136.507277,88.9575757 L124.274184,89.8242152 L123.685829,99.0898738 L120.040051,97.0192794 L120.663591,88.1979614 L113.110119,92.961352 L110.472719,91.3779512 Z" fill="#000000" id="Chain-Link"/><polygon fill="#000000" fill-rule="nonzero" id="Path-40" points="33.6045242 104.381313 32.6605614 102.618096 28.204311 105.003812 32.2926871 111.329503 33.9723985 110.243884 31.0628089 105.742056"/><polygon fill="#000000" fill-rule="nonzero" id="Path-40" points="53.0553215 112.810763 51.3411018 111.780496 47.2465377 118.593275 51.8119653 120.505014 52.584458 118.660223 50.1519199 117.641615" transform="translate(50.150930, 116.142755) scale(-1, 1) translate(-50.150930, -116.142755) "/><polygon fill="#000000" fill-rule="nonzero" id="Path-41" points="36.8425909 110.583308 44.3707329 115.2718 45.4280381 113.574124 37.8998961 108.885631"/><polygon fill="#000000" fill-rule="nonzero" id="Path-40" points="32.9464265 185.985426 32.0024637 184.22221 27.5462133 186.607925 31.6345894 192.933616 33.3143009 191.847997 30.4047112 187.346169"/><polygon fill="#000000" fill-rule="nonzero" id="Path-44" points="34.9720448 195.943049 39.4910903 189.368545 37.8428981 188.235645 33.3238525 194.810149"/><polygon fill="#000000" fill-rule="nonzero" id="Path-40" points="45.1581493 191.124388 43.4439295 190.094121 39.3493654 196.9069 43.9147931 198.818639 44.6872858 196.973847 42.2547477 195.95524" transform="translate(42.253757, 194.456380) scale(-1, 1) translate(-42.253757, -194.456380) "/><polygon fill="#529BDB" fill-rule="nonzero" id="Path-43" points="28.8394843 118.336996 82.3502583 149.122445 83.8462836 146.522078 30.3355095 115.736629"/><polygon fill="#529BDB" fill-rule="nonzero" id="Path-43" points="28.8501826 131.505046 110.810244 177.766434 112.284872 175.153874 30.3248113 128.892486"/><polygon fill="#529BDB" fill-rule="nonzero" id="Path-43" points="28.8501826 143.350805 110.810244 189.612193 112.284872 186.999633 30.3248113 140.738245"/><polygon fill="#529BDB" fill-rule="nonzero" id="Path-43" points="28.8462717 153.878152 62.7652015 173.157535 64.2476519 170.549406 30.3287221 151.270023"/><polygon fill="#529BDB" fill-rule="nonzero" id="Path-43" points="28.8461582 163.749553 96.3280701 202.113769 97.8107474 199.505768 30.3288356 161.141553"/><polygon fill="#529BDB" fill-rule="nonzero" id="Path-43" points="28.8662795 173.632254 49.6232556 185.014465 51.0656904 182.383993 30.3087143 171.001782"/><g id="Lock" transform="translate(161.233933, 134.012853)"><path d="M41.5940913,15.2218578 L44.4452341,13.3402271 C46.4603935,11.98617 48.125957,13.1532418 48.1470118,15.9523672 L48.4142633,51.5320054 C48.4353102,54.3379392 46.7961113,57.9063342 44.7707055,59.4315244 L3.73618758,83.569288 C1.68193441,84.4488369 0,82.7962759 0,79.9250469 L1.46785408e-14,43.4657669 C1.46700635e-14,40.5936286 1.66594682,37.4774693 3.70188503,36.5233213 L6.57830933,35.1428621 C6.572579,1.29794321 41.3698395,-13.4313448 41.5940913,15.2218578 Z M35.4271613,19.1559116 C35.2366189,-6.78066483 12.7655803,11.2212535 12.7871004,32.0328704 L35.4271613,19.1559116 Z" fill="#38A9F7" id="Fill-1"/><path d="M20.8311534,48.7347742 C20.8195999,45.5776535 22.5796347,42.029348 24.7611565,40.7853961 C26.9414138,39.5152587 28.7203433,41.015031 28.7356515,44.159449 C28.7449528,46.0702438 28.1002504,48.155032 27.1029902,49.7881964 L27.1323581,56.1428397 C27.1408903,57.9894206 26.0898017,60.1179485 24.7842146,60.8865826 C23.4781069,61.643848 22.4130644,60.7489011 22.4058472,58.8980733 L22.3804791,52.3936931 C21.443995,51.8725222 20.8378766,50.5721485 20.8311534,48.7347742 Z" fill="#177FE6" id="Combined-Shape"/></g></g></g></g></svg>