<?xml version="1.0" ?><svg height="256px" version="1.1" viewBox="0 0 156 256" width="156px" xmlns="http://www.w3.org/2000/svg" xmlns:xlink="http://www.w3.org/1999/xlink"><title/><desc/><defs/><g fill="none" fill-rule="evenodd" id="Classic" stroke="none" stroke-width="1"><g id="Ethereum" transform="translate(-1570.000000, -410.000000)"><g transform="translate(1570.000000, 410.000000)"><path d="M0,128 L80,0 L80,93.5358372 L0,128 Z M156,128 L80,93.5809573 L80,0 L156,128 Z" fill="#828384" id="Combined-Shape"/><path d="M80,176 L0,131.00396 L80,96 L80,176 Z M156,131.011473 L80,176 L80,96 L156,131.011473 Z" fill="#343535" id="Combined-Shape"/><path d="M0,148 L80,194.180711 L80,256 L0,148 Z M156,148 L80,256 L80,194.175361 L156,148 Z" fill="#828384" id="Combined-Shape"/><polygon fill="#2F3030" id="Path-3" points="156 128 80 93.5809573 80 0"/><polygon fill="#131313" id="Path-5" points="156 131.011473 80 96 80 176"/><polygon fill="#2F3030" id="Path-7" points="156 148 80 194.175361 80 256"/></g></g></g></svg>