<?xml version="1.0" ?><svg height="256px" version="1.1" viewBox="0 0 256 256" width="256px" xmlns="http://www.w3.org/2000/svg" xmlns:xlink="http://www.w3.org/1999/xlink"><title/><desc/><defs/><g fill="none" fill-rule="evenodd" id="Classic" stroke="none" stroke-width="1"><g id="Monero" transform="translate(-5829.000000, -410.000000)"><g transform="translate(5829.000000, 410.000000)"><path d="M44.544,169.256038 L44.544,60.9281024 L128,143.872102 L210.432,60.9281024 L210.432,169.256038 L249.202688,169.256038 C253.607936,156.31063 256,142.43543 256,128.000102 C256,57.3072384 198.69184,0.0001024 128,0.0001024 C57.30816,0.0001024 0,57.3072384 0,128.000102 C0,142.43543 2.392064,156.31063 6.797312,169.256038 L44.544,169.256038 Z" fill="#ED472F" id="Fill-1"/><path d="M182.784,194.048 L182.784,127.488 L128,182.272 L72.192,127.488 L72.192,194.048 L18.338816,194.048 C40.748032,231.174144 81.473536,256 128,256 C174.526464,256 215.251968,231.174144 237.661184,194.048 L182.784,194.048 Z" fill="#4C4C4C" id="Fill-3"/></g></g></g></svg>