<svg xmlns="http://www.w3.org/2000/svg" xmlns:xlink="http://www.w3.org/1999/xlink" xmlns:fi="http://pattern.flaticon.com/" x="0" y="0" width="2160" height="1080" viewBox="0 0 2160 1080"><rect x="0px" y="0px" width="100%" height="100%" opacity="1" fill="#ffffff"/><defs><g transform="matrix(0.13368983566761017 0 0 0.13368983566761017 153 97.00000081597801)" id="L1_6"><path d="M299.2,292.4 224.4,248.4 299.2,204.8 374,160.8 448.8,204.8 374,248.4z" fill="#d9ac80"/><path d="M223.6,248 223.6,419.6 372,333.6 372,249.6 299.2,292.4 224.4,248.4z" fill="#a67e4f"/><path d="M149.6,292.4 224.4,248.4 149.6,204.8 74.8,160.8 0,204.8 74.8,248.4z" fill="#d9ac80"/><path d="M224.4,72.8 299.2,116.8 374,160.8 299.2,204.8 224.4,248.4 149.6,204.8 74.8,160.8    149.6,116.8z" fill="#643513"/><g><path d="M149.6,29.2 224.4,72.8 149.6,116.8 74.8,160.8 0,116.8 74.8,72.8z" fill="#d9ac80"/><path d="M299.2,29.2 224.4,72.8 299.2,116.8 374,160.8 448.8,116.8 374,72.8z" fill="#d9ac80"/></g><path d="M223.6,249.2 223.6,419.6 74.8,333.6 74.8,248.4 149.6,292.4z" fill="#926e43"/><path d="M149.6,116.8 74.8,160.8 149.6,204.8 173.6,218.8 224.4,189.2 224.4,72.8z" fill="#8d5122"/><path d="M224.4,72.8 224.4,189.2 275.2,218.8 299.2,204.8 374,160.8 299.2,116.8z" fill="#77411b"/></g><g transform="matrix(0.1171875 0 0 0.1171875 147 277)" id="L1_7"><path d="M120,138 180,351 437,351 498,138z" fill="#ffffff"/><g><path d="M245.914,425.453c0,16.547-13.414,29.953-29.961,29.953C199.414,455.406,186,442,186,425.453   s13.414-29.953,29.953-29.953C232.5,395.5,245.914,408.906,245.914,425.453z" fill="#434a54"/><path d="M413.969,425.453c0,16.547-13.422,29.953-29.969,29.953c-16.531,0-29.953-13.406-29.953-29.953   S367.469,395.5,384,395.5C400.547,395.5,413.969,408.906,413.969,425.453z" fill="#434a54"/></g><path d="M448,384H181.336c-5.883,0-10.672-4.781-10.672-10.656c0-5.891,4.789-10.688,10.672-10.688H448L512,128H128.844  l-18.18-66.812l-0.008,0.016c-1.125-4.141-4.664-7.266-9.023-7.797L11.93,42.75h-0.008c-0.406-0.062-0.828-0.094-1.258-0.094  C4.773,42.656,0,47.438,0,53.344c0,5.453,4.109,9.953,9.406,10.578l82.562,9.828l73.953,271.531  c-9.883,5.438-16.586,15.969-16.586,28.062c0,16.062,11.828,29.344,27.258,31.641c-3.766,6.359-5.93,13.766-5.93,21.672  c0,23.562,19.102,42.688,42.672,42.688c23.562,0,42.664-19.125,42.664-42.688c0-7.766-2.094-15.047-5.719-21.312h96.781  c-3.641,6.266-5.719,13.547-5.719,21.312c0,23.562,19.094,42.688,42.656,42.688s42.656-19.125,42.656-42.688  c0-7.766-2.078-15.047-5.719-21.312H448c5.891,0,10.656-4.781,10.656-10.688C458.656,388.781,453.891,384,448,384z M298.656,341.344  h-49.469l-8-53.344h57.469V341.344z M298.656,266.656h-60.672l-8-53.312h68.672V266.656z M422.047,149.344h62.016L472.438,192  h-56.797L422.047,149.344z M412.438,213.344h54.188l-14.562,53.312h-47.625L412.438,213.344z M446.25,288l-14.547,53.344H393.25  l8-53.344H446.25z M320,149.344h80.469L394.062,192H320V149.344z M320,213.344h70.875l-8,53.312H320V213.344z M320,288h59.672  l-8,53.344H320V288z M298.656,149.344V192h-71.867l-6.406-42.656H298.656z M227.617,341.344h-40.656L172.414,288h47.203  L227.617,341.344z M198.812,149.344L205.211,192h-58.977l-11.641-42.656H198.812z M152.055,213.344h56.359l8,53.312h-49.82  L152.055,213.344z M213.336,448C201.57,448,192,438.438,192,426.656c0-11.75,9.57-21.312,21.336-21.312  c11.758,0,21.328,9.562,21.328,21.312C234.664,438.438,225.094,448,213.336,448z M384,448c-11.766,0-21.344-9.562-21.344-21.344  c0-11.75,9.578-21.312,21.344-21.312s21.344,9.562,21.344,21.312C405.344,438.438,395.766,448,384,448z"/><path d="M384,437.344c5.891,0,10.656-4.781,10.656-10.688c0-5.875-4.766-10.656-10.656-10.656s-10.656,4.781-10.656,10.656  C373.344,432.562,378.109,437.344,384,437.344z"/><path d="M213.336,437.344c5.891,0,10.664-4.781,10.664-10.688c0-5.875-4.773-10.656-10.664-10.656s-10.672,4.781-10.672,10.656  C202.664,432.562,207.445,437.344,213.336,437.344z"/></g><g transform="matrix(0.1171875 0 0 0.1171875 -27 160)" id="L1_8"><path d="m401 0h-356c-24.81 0-45 20.19-45 45v243c0 24.81 20.19 45 45 45h356c24.81 0 45-20.19 45-45v-243c0-24.81-20.19-45-45-45z" fill="#5e69e2"/><path d="m446 45v243c0 24.81-20.19 45-45 45h-112v-333h112c24.81 0 45 20.19 45 45z" fill="#5e69e2"/><path d="m66 168v185c0 24.81 20.19 45 45 45h356c24.81 0 45-20.19 45-45v-185z" fill="#6ba7ff"/><path d="m512 168v185c0 24.81-20.19 45-45 45h-178v-230z" fill="#5e69e2"/><path d="m177 335h-32c-8.284 0-15-6.716-15-15s6.716-15 15-15h32c8.284 0 15 6.716 15 15s-6.716 15-15 15z" fill="#f2f2fc"/><path d="m273 335h-32c-8.284 0-15-6.716-15-15s6.716-15 15-15h32c8.284 0 15 6.716 15 15s-6.716 15-15 15z" fill="#f2f2fc"/><path d="m512 110v58h-446v-58c0-24.81 20.19-45 45-45h356c24.81 0 45 20.19 45 45z" fill="#6ba7ff"/><path d="m512 110v58h-223v-103h178c24.81 0 45 20.19 45 45z" fill="#6ba7ff"/><path d="m256 215h-112c-8.284 0-15-6.716-15-15v-64c0-8.284 6.716-15 15-15h112c8.284 0 15 6.716 15 15v64c0 8.284-6.716 15-15 15z" fill="#ffdf40"/><path d="m497 250h-1.52c-36.79 0-72.61-12.97-100.88-36.52-2.78-2.32-6.19-3.48-9.6-3.48s-6.82 1.16-9.6 3.48c-28.27 23.55-64.09 36.52-100.88 36.52h-1.52c-8.28 0-15 6.72-15 15v83.52c0 37.11 11.81 72.39 34.16 102.02 22.36 29.63 53.03 50.69 88.72 60.88 1.35.39 2.73.58 4.12.58s2.77-.19 4.12-.58c35.69-10.19 66.36-31.25 88.72-60.88 22.35-29.63 34.16-64.91 34.16-102.02v-83.52c0-8.28-6.72-15-15-15z" fill="#ace233"/><path d="m512 265v83.52c0 37.11-11.81 72.39-34.16 102.02-22.36 29.63-53.03 50.69-88.72 60.88-1.35.39-2.73.58-4.12.58v-302c3.41 0 6.82 1.16 9.6 3.48 28.27 23.55 64.09 36.52 100.88 36.52h1.52c8.28 0 15 6.72 15 15z" fill="#65cc3a"/><path d="m457.61 334.61-62 62c-2.93 2.93-6.77 4.39-10.61 4.39s-7.68-1.46-10.61-4.39l-32-32c-5.85-5.86-5.85-15.36 0-21.22 5.86-5.85 15.36-5.85 21.22 0l21.39 21.4 51.39-51.4c5.86-5.85 15.36-5.85 21.22 0 5.85 5.86 5.85 15.36 0 21.22z" fill="#f2f2fc"/><path d="m457.61 334.61-62 62c-2.93 2.93-6.77 4.39-10.61 4.39v-36.21l51.39-51.4c5.86-5.85 15.36-5.85 21.22 0 5.85 5.86 5.85 15.36 0 21.22z" fill="#d6d6f2"/></g></defs><g fi:class="KUsePattern" opacity="0.47"><pattern id="pattern_L1_6" width="350" height="350" patternUnits="userSpaceOnUse"><use xlink:href="#L1_6" x="-350" y="-350"/><use xlink:href="#L1_6" x="0" y="-350"/><use xlink:href="#L1_6" x="350" y="-350"/><use xlink:href="#L1_6" x="-350" y="0"/><use xlink:href="#L1_6" x="0" y="0"/><use xlink:href="#L1_6" x="350" y="0"/><use xlink:href="#L1_6" x="-350" y="350"/><use xlink:href="#L1_6" x="0" y="350"/><use xlink:href="#L1_6" x="350" y="350"/></pattern><rect x="0" y="0" width="100%" height="100%" fill="url(#pattern_L1_6)"/></g><g fi:class="KUsePattern" opacity="0.48"><pattern id="pattern_L1_7" width="350" height="350" patternUnits="userSpaceOnUse"><use xlink:href="#L1_7" x="-350" y="-350"/><use xlink:href="#L1_7" x="0" y="-350"/><use xlink:href="#L1_7" x="350" y="-350"/><use xlink:href="#L1_7" x="-350" y="0"/><use xlink:href="#L1_7" x="0" y="0"/><use xlink:href="#L1_7" x="350" y="0"/><use xlink:href="#L1_7" x="-350" y="350"/><use xlink:href="#L1_7" x="0" y="350"/><use xlink:href="#L1_7" x="350" y="350"/></pattern><rect x="0" y="0" width="100%" height="100%" fill="url(#pattern_L1_7)"/></g><g fi:class="KUsePattern" opacity="0.5"><pattern id="pattern_L1_8" width="350" height="350" patternUnits="userSpaceOnUse"><use xlink:href="#L1_8" x="-350" y="-350"/><use xlink:href="#L1_8" x="0" y="-350"/><use xlink:href="#L1_8" x="350" y="-350"/><use xlink:href="#L1_8" x="-350" y="0"/><use xlink:href="#L1_8" x="0" y="0"/><use xlink:href="#L1_8" x="350" y="0"/><use xlink:href="#L1_8" x="-350" y="350"/><use xlink:href="#L1_8" x="0" y="350"/><use xlink:href="#L1_8" x="350" y="350"/></pattern><rect x="0" y="0" width="100%" height="100%" fill="url(#pattern_L1_8)"/></g></svg>