<?xml version="1.0" encoding="UTF-8"?>
<!DOCTYPE svg PUBLIC "-//W3C//DTD SVG 1.1//EN" "http://www.w3.org/Graphics/SVG/1.1/DTD/svg11.dtd">
<!-- Creator: CorelDRAW 2021 (64-Bit) -->
<svg xmlns="http://www.w3.org/2000/svg" xml:space="preserve" width="211.667mm" height="141.111mm" version="1.1" style="shape-rendering:geometricPrecision; text-rendering:geometricPrecision; image-rendering:optimizeQuality; fill-rule:evenodd; clip-rule:evenodd"
viewBox="0 0 21166.66 14111.1"
 xmlns:xlink="http://www.w3.org/1999/xlink"
 xmlns:xodm="http://www.corel.com/coreldraw/odm/2003">
 <defs>
  <style type="text/css">
   <![CDATA[
    .str0 {stroke:#152F70;stroke-width:176.39;stroke-linecap:round;stroke-linejoin:round;stroke-miterlimit:22.9256}
    .fil0 {fill:none}
    .fil2 {fill:none;fill-rule:nonzero}
    .fil1 {fill:#152F70;fill-rule:nonzero}
   ]]>
  </style>
 </defs>
 <g id="Layer_x0020_1">
  <metadata id="CorelCorpID_0Corel-Layer"/>
  <g id="_2139404784320">
   <rect class="fil0 str0" x="2707.57" y="6723.67" width="602.23" height="602.23"/>
   <polygon class="fil1" points="5490.98,6067.15 4783.87,7641.47 4734.95,7641.47 4027.85,6067.15 4119.01,6067.15 4757.19,7505.83 5399.81,6067.15 "/>
   <path id="_1" class="fil1" d="M6742.88 7063.33l-1136.27 0c7.42,157.14 62.27,281.29 164.55,372.46 102.29,91.16 230.52,136.75 384.69,136.75 115.62,0 210.13,-17.05 283.51,-51.14 73.38,-34.1 136.75,-84.5 190.11,-151.21l62.27 48.92c-120.08,154.17 -299.45,231.26 -538.12,231.26 -188.26,0 -340.21,-57.45 -455.84,-172.33 -115.63,-114.89 -173.44,-264.24 -173.44,-448.06 0,-177.89 57.07,-323.91 171.22,-438.05 114.14,-114.15 260.9,-171.22 440.27,-171.22 183.82,0 330.95,57.07 441.39,171.22 110.44,114.14 165.66,261.64 165.66,442.5l0 28.9zm-607.05 -564.79c-145.27,0 -267.57,45.58 -366.89,136.75 -99.32,91.17 -152.69,209.39 -160.1,354.66l1051.77 0c-8.9,-145.27 -60.78,-263.49 -155.66,-354.66 -94.87,-91.17 -217.91,-136.75 -369.12,-136.75z"/>
   <path id="_2" class="fil1" d="M7565.62 8043.94c-161.59,0 -326.13,-24.46 -493.64,-73.37l0 -82.28c166.02,53.37 327.61,80.05 484.74,80.05 327.61,0 491.42,-144.53 491.42,-433.6l0 -91.17c-124.52,100.8 -281.66,151.21 -471.41,151.21 -189.74,0 -341.32,-53 -454.72,-158.99 -113.41,-106 -170.11,-242.75 -170.11,-410.26 0,-186.78 57.81,-334.28 173.44,-442.5 115.63,-108.21 266.84,-162.32 453.62,-162.32 192.71,0 349.11,53.37 469.18,160.1l0 -144.54 77.83 0 0 1087.35c0,346.88 -186.79,520.32 -560.35,520.32zm15.56 -526.99c200.13,0 355.78,-54.85 466.96,-164.55l0 -678.2c-115.63,-117.11 -270.54,-175.66 -464.73,-175.66 -163.07,0 -295.37,46.69 -396.92,140.08 -101.54,93.39 -152.32,222.36 -152.32,386.91 0,143.79 49.66,261.65 148.99,353.55 99.32,91.91 231.99,137.87 398.02,137.87z"/>
   <path id="_3" class="fil1" d="M9042.09 7650.37c-191.23,0 -343.17,-55.97 -455.84,-167.89 -112.66,-111.92 -168.99,-262.01 -168.99,-450.28 0,-189.75 57.81,-339.1 173.44,-448.06 115.63,-108.95 266.84,-163.43 453.62,-163.43 192.71,0 349.11,53.37 469.18,160.1l0 -144.54 77.83 0 0 1198.53 -77.83 0 0 -144.53c-121.56,106.73 -278.69,160.1 -471.41,160.1zm4.45 -77.83c201.61,0 357.26,-57.81 466.96,-173.44l0 -724.9c-115.63,-117.11 -270.54,-175.66 -464.73,-175.66 -163.07,0 -295.37,47.43 -396.92,142.31 -101.54,94.87 -152.32,225.32 -152.32,391.35 0,164.55 49.29,295.74 147.87,393.58 98.58,97.84 231.63,146.76 399.14,146.76z"/>
   <polygon id="_4" class="fil1" points="9989.35,6067.15 11021.11,6067.15 11021.11,6144.98 10071.63,6144.98 10071.63,6836.52 10883.24,6836.52 10883.24,6912.13 10071.63,6912.13 10071.63,7556.97 11067.8,7556.97 11067.8,7634.8 9989.35,7634.8 "/>
   <polygon id="_5" class="fil1" points="12279.67,7634.8 11803.82,7090.02 11325.75,7634.8 11223.46,7634.8 11752.68,7027.75 11232.35,6436.27 11336.86,6436.27 11803.82,6969.94 12268.56,6436.27 12373.07,6436.27 11854.97,7029.98 12384.18,7634.8 "/>
   <path id="_6" class="fil1" d="M12628.78 6436.27l80.05 0 0 144.54c120.08,-106.73 276.47,-160.1 469.19,-160.1 186.78,0 337.61,54.48 452.5,163.43 114.89,108.96 172.33,258.31 172.33,448.06 0,188.27 -55.96,338.36 -167.88,450.28 -111.92,111.92 -264.24,167.89 -456.95,167.89 -191.23,0 -347.63,-53.37 -469.19,-160.1l0 533.66 -80.05 0 0 -1587.66zm544.79 1136.27c168.99,0 302.41,-48.92 400.25,-146.76 97.84,-97.84 146.76,-229.03 146.76,-393.58 0,-167.51 -50.41,-298.33 -151.21,-392.47 -100.8,-94.13 -232.74,-141.19 -395.8,-141.19 -194.2,0 -349.11,58.55 -464.74,175.66l0 724.9c114.15,115.63 269.06,173.44 464.74,173.44z"/>
   <path id="_7" class="fil1" d="M14109.7 6436.27l80.05 0 0 293.52c35.58,-94.87 88.58,-170.11 158.99,-225.7 70.42,-55.59 153.8,-83.38 250.16,-83.38 69.67,0 131.19,12.6 184.56,37.8l0 91.17c-63.75,-31.13 -128.23,-46.7 -193.46,-46.7 -115.62,0 -211.24,49.29 -286.84,147.87 -75.6,98.58 -113.41,219.77 -113.41,363.56l0 620.39 -80.05 0 0 -1198.53z"/>
   <path id="_8" class="fil1" d="M16106.51 7063.33l-1136.27 0c7.42,157.14 62.27,281.29 164.55,372.46 102.29,91.16 230.52,136.75 384.69,136.75 115.62,0 210.13,-17.05 283.51,-51.14 73.38,-34.1 136.75,-84.5 190.11,-151.21l62.27 48.92c-120.08,154.17 -299.45,231.26 -538.12,231.26 -188.26,0 -340.21,-57.45 -455.84,-172.33 -115.63,-114.89 -173.44,-264.24 -173.44,-448.06 0,-177.89 57.07,-323.91 171.22,-438.05 114.14,-114.15 260.9,-171.22 440.27,-171.22 183.82,0 330.95,57.07 441.39,171.22 110.44,114.14 165.66,261.64 165.66,442.5l0 28.9zm-607.05 -564.79c-145.27,0 -267.57,45.58 -366.89,136.75 -99.32,91.17 -152.69,209.39 -160.1,354.66l1051.77 0c-8.9,-145.27 -60.78,-263.49 -155.66,-354.66 -94.87,-91.17 -217.91,-136.75 -369.12,-136.75z"/>
   <path id="_9" class="fil1" d="M16811.4 7650.37c-189.75,0 -354.3,-37.81 -493.65,-113.41l31.13 -73.38c133.42,72.64 288.33,108.96 464.74,108.96 134.9,0 233.11,-23.72 294.63,-71.16 61.52,-47.43 92.28,-110.44 92.28,-189 0,-71.16 -32.25,-124.53 -96.73,-160.1 -64.48,-35.58 -173.07,-68.94 -325.76,-100.07 -155.65,-32.61 -267.57,-71.89 -335.76,-117.85 -68.19,-45.95 -102.29,-113.4 -102.29,-202.35 0,-97.83 40.77,-174.18 122.3,-229.03 81.53,-54.85 185.3,-82.27 311.3,-82.27 151.21,0 297.97,30.39 440.28,91.17l-26.68 71.15c-123.04,-56.33 -260.91,-84.49 -413.6,-84.49 -102.28,0 -186.41,20.38 -252.38,61.14 -65.96,40.77 -98.95,97.47 -98.95,170.11 0,66.71 29.28,116.74 87.84,150.09 58.55,33.36 159.73,65.6 303.52,96.73 170.48,37.06 291.66,78.2 363.56,123.41 71.9,45.22 107.84,115.26 107.84,210.13 0,102.29 -38.17,184.56 -114.51,246.82 -76.35,62.26 -196.05,93.4 -359.11,93.4z"/>
   <path id="_10" class="fil1" d="M17985.47 7650.37c-189.75,0 -354.3,-37.81 -493.65,-113.41l31.13 -73.38c133.42,72.64 288.33,108.96 464.74,108.96 134.9,0 233.11,-23.72 294.63,-71.16 61.52,-47.43 92.28,-110.44 92.28,-189 0,-71.16 -32.25,-124.53 -96.73,-160.1 -64.48,-35.58 -173.07,-68.94 -325.76,-100.07 -155.65,-32.61 -267.57,-71.89 -335.76,-117.85 -68.19,-45.95 -102.29,-113.4 -102.29,-202.35 0,-97.83 40.77,-174.18 122.3,-229.03 81.53,-54.85 185.3,-82.27 311.3,-82.27 151.21,0 297.97,30.39 440.28,91.17l-26.68 71.15c-123.04,-56.33 -260.91,-84.49 -413.6,-84.49 -102.28,0 -186.41,20.38 -252.38,61.14 -65.96,40.77 -98.95,97.47 -98.95,170.11 0,66.71 29.28,116.74 87.84,150.09 58.55,33.36 159.73,65.6 303.52,96.73 170.48,37.06 291.66,78.2 363.56,123.41 71.9,45.22 107.84,115.26 107.84,210.13 0,102.29 -38.17,184.56 -114.51,246.82 -76.35,62.26 -196.05,93.4 -359.11,93.4z"/>
   <polygon id="_11" class="fil2 str0" points="5490.98,6067.15 4783.87,7641.47 4734.95,7641.47 4027.85,6067.15 4119.01,6067.15 4757.19,7505.83 5399.81,6067.15 "/>
   <path id="_12" class="fil2 str0" d="M6742.88 7063.33l-1136.27 0c7.42,157.14 62.27,281.29 164.55,372.46 102.29,91.16 230.52,136.75 384.69,136.75 115.62,0 210.13,-17.05 283.51,-51.14 73.38,-34.1 136.75,-84.5 190.11,-151.21l62.27 48.92c-120.08,154.17 -299.45,231.26 -538.12,231.26 -188.26,0 -340.21,-57.45 -455.84,-172.33 -115.63,-114.89 -173.44,-264.24 -173.44,-448.06 0,-177.89 57.07,-323.91 171.22,-438.05 114.14,-114.15 260.9,-171.22 440.27,-171.22 183.82,0 330.95,57.07 441.39,171.22 110.44,114.14 165.66,261.64 165.66,442.5l0 28.9zm-607.05 -564.79c-145.27,0 -267.57,45.58 -366.89,136.75 -99.32,91.17 -152.69,209.39 -160.1,354.66l1051.77 0c-8.9,-145.27 -60.78,-263.49 -155.66,-354.66 -94.87,-91.17 -217.91,-136.75 -369.12,-136.75z"/>
   <path id="_13" class="fil2 str0" d="M7565.62 8043.94c-161.59,0 -326.13,-24.46 -493.64,-73.37l0 -82.28c166.02,53.37 327.61,80.05 484.74,80.05 327.61,0 491.42,-144.53 491.42,-433.6l0 -91.17c-124.52,100.8 -281.66,151.21 -471.41,151.21 -189.74,0 -341.32,-53 -454.72,-158.99 -113.41,-106 -170.11,-242.75 -170.11,-410.26 0,-186.78 57.81,-334.28 173.44,-442.5 115.63,-108.21 266.84,-162.32 453.62,-162.32 192.71,0 349.11,53.37 469.18,160.1l0 -144.54 77.83 0 0 1087.35c0,346.88 -186.79,520.32 -560.35,520.32zm15.56 -526.99c200.13,0 355.78,-54.85 466.96,-164.55l0 -678.2c-115.63,-117.11 -270.54,-175.66 -464.73,-175.66 -163.07,0 -295.37,46.69 -396.92,140.08 -101.54,93.39 -152.32,222.36 -152.32,386.91 0,143.79 49.66,261.65 148.99,353.55 99.32,91.91 231.99,137.87 398.02,137.87z"/>
   <path id="_14" class="fil2 str0" d="M9042.09 7650.37c-191.23,0 -343.17,-55.97 -455.84,-167.89 -112.66,-111.92 -168.99,-262.01 -168.99,-450.28 0,-189.75 57.81,-339.1 173.44,-448.06 115.63,-108.95 266.84,-163.43 453.62,-163.43 192.71,0 349.11,53.37 469.18,160.1l0 -144.54 77.83 0 0 1198.53 -77.83 0 0 -144.53c-121.56,106.73 -278.69,160.1 -471.41,160.1zm4.45 -77.83c201.61,0 357.26,-57.81 466.96,-173.44l0 -724.9c-115.63,-117.11 -270.54,-175.66 -464.73,-175.66 -163.07,0 -295.37,47.43 -396.92,142.31 -101.54,94.87 -152.32,225.32 -152.32,391.35 0,164.55 49.29,295.74 147.87,393.58 98.58,97.84 231.63,146.76 399.14,146.76z"/>
   <polygon id="_15" class="fil2 str0" points="9989.35,6067.15 11021.11,6067.15 11021.11,6144.98 10071.63,6144.98 10071.63,6836.52 10883.24,6836.52 10883.24,6912.13 10071.63,6912.13 10071.63,7556.97 11067.8,7556.97 11067.8,7634.8 9989.35,7634.8 "/>
   <polygon id="_16" class="fil2 str0" points="12279.67,7634.8 11803.82,7090.02 11325.75,7634.8 11223.46,7634.8 11752.68,7027.75 11232.35,6436.27 11336.86,6436.27 11803.82,6969.94 12268.56,6436.27 12373.07,6436.27 11854.97,7029.98 12384.18,7634.8 "/>
   <path id="_17" class="fil2 str0" d="M12628.78 6436.27l80.05 0 0 144.54c120.08,-106.73 276.47,-160.1 469.19,-160.1 186.78,0 337.61,54.48 452.5,163.43 114.89,108.96 172.33,258.31 172.33,448.06 0,188.27 -55.96,338.36 -167.88,450.28 -111.92,111.92 -264.24,167.89 -456.95,167.89 -191.23,0 -347.63,-53.37 -469.19,-160.1l0 533.66 -80.05 0 0 -1587.66zm544.79 1136.27c168.99,0 302.41,-48.92 400.25,-146.76 97.84,-97.84 146.76,-229.03 146.76,-393.58 0,-167.51 -50.41,-298.33 -151.21,-392.47 -100.8,-94.13 -232.74,-141.19 -395.8,-141.19 -194.2,0 -349.11,58.55 -464.74,175.66l0 724.9c114.15,115.63 269.06,173.44 464.74,173.44z"/>
   <path id="_18" class="fil2 str0" d="M14109.7 6436.27l80.05 0 0 293.52c35.58,-94.87 88.58,-170.11 158.99,-225.7 70.42,-55.59 153.8,-83.38 250.16,-83.38 69.67,0 131.19,12.6 184.56,37.8l0 91.17c-63.75,-31.13 -128.23,-46.7 -193.46,-46.7 -115.62,0 -211.24,49.29 -286.84,147.87 -75.6,98.58 -113.41,219.77 -113.41,363.56l0 620.39 -80.05 0 0 -1198.53z"/>
   <path id="_19" class="fil2 str0" d="M16106.51 7063.33l-1136.27 0c7.42,157.14 62.27,281.29 164.55,372.46 102.29,91.16 230.52,136.75 384.69,136.75 115.62,0 210.13,-17.05 283.51,-51.14 73.38,-34.1 136.75,-84.5 190.11,-151.21l62.27 48.92c-120.08,154.17 -299.45,231.26 -538.12,231.26 -188.26,0 -340.21,-57.45 -455.84,-172.33 -115.63,-114.89 -173.44,-264.24 -173.44,-448.06 0,-177.89 57.07,-323.91 171.22,-438.05 114.14,-114.15 260.9,-171.22 440.27,-171.22 183.82,0 330.95,57.07 441.39,171.22 110.44,114.14 165.66,261.64 165.66,442.5l0 28.9zm-607.05 -564.79c-145.27,0 -267.57,45.58 -366.89,136.75 -99.32,91.17 -152.69,209.39 -160.1,354.66l1051.77 0c-8.9,-145.27 -60.78,-263.49 -155.66,-354.66 -94.87,-91.17 -217.91,-136.75 -369.12,-136.75z"/>
   <path id="_20" class="fil2 str0" d="M16811.4 7650.37c-189.75,0 -354.3,-37.81 -493.65,-113.41l31.13 -73.38c133.42,72.64 288.33,108.96 464.74,108.96 134.9,0 233.11,-23.72 294.63,-71.16 61.52,-47.43 92.28,-110.44 92.28,-189 0,-71.16 -32.25,-124.53 -96.73,-160.1 -64.48,-35.58 -173.07,-68.94 -325.76,-100.07 -155.65,-32.61 -267.57,-71.89 -335.76,-117.85 -68.19,-45.95 -102.29,-113.4 -102.29,-202.35 0,-97.83 40.77,-174.18 122.3,-229.03 81.53,-54.85 185.3,-82.27 311.3,-82.27 151.21,0 297.97,30.39 440.28,91.17l-26.68 71.15c-123.04,-56.33 -260.91,-84.49 -413.6,-84.49 -102.28,0 -186.41,20.38 -252.38,61.14 -65.96,40.77 -98.95,97.47 -98.95,170.11 0,66.71 29.28,116.74 87.84,150.09 58.55,33.36 159.73,65.6 303.52,96.73 170.48,37.06 291.66,78.2 363.56,123.41 71.9,45.22 107.84,115.26 107.84,210.13 0,102.29 -38.17,184.56 -114.51,246.82 -76.35,62.26 -196.05,93.4 -359.11,93.4z"/>
   <path id="_21" class="fil2 str0" d="M17985.47 7650.37c-189.75,0 -354.3,-37.81 -493.65,-113.41l31.13 -73.38c133.42,72.64 288.33,108.96 464.74,108.96 134.9,0 233.11,-23.72 294.63,-71.16 61.52,-47.43 92.28,-110.44 92.28,-189 0,-71.16 -32.25,-124.53 -96.73,-160.1 -64.48,-35.58 -173.07,-68.94 -325.76,-100.07 -155.65,-32.61 -267.57,-71.89 -335.76,-117.85 -68.19,-45.95 -102.29,-113.4 -102.29,-202.35 0,-97.83 40.77,-174.18 122.3,-229.03 81.53,-54.85 185.3,-82.27 311.3,-82.27 151.21,0 297.97,30.39 440.28,91.17l-26.68 71.15c-123.04,-56.33 -260.91,-84.49 -413.6,-84.49 -102.28,0 -186.41,20.38 -252.38,61.14 -65.96,40.77 -98.95,97.47 -98.95,170.11 0,66.71 29.28,116.74 87.84,150.09 58.55,33.36 159.73,65.6 303.52,96.73 170.48,37.06 291.66,78.2 363.56,123.41 71.9,45.22 107.84,115.26 107.84,210.13 0,102.29 -38.17,184.56 -114.51,246.82 -76.35,62.26 -196.05,93.4 -359.11,93.4z"/>
  </g>
 </g>
</svg>
